<?xml version="1.0" encoding="UTF-8"?>
<svg width="100px" height="100px" viewBox="0 0 100 100" version="1.1" xmlns="http://www.w3.org/2000/svg" xmlns:xlink="http://www.w3.org/1999/xlink">
    <!-- Generator: Sketch 55 (78076) - https://sketchapp.com -->
    <title>Bevapp</title>
    <desc>Created with Sketch.</desc>
    <g id="Bevapp" stroke="none" stroke-width="1" fill="none" fill-rule="evenodd">
        <g id="Group-6" transform="translate(0.000000, 39.000000)" fill="#054A74" fill-rule="nonzero">
            <path d="M1.68,2.46696296 L0,2.46696296 L0,1.2402963 C0.5200026,0.981332039 1.1233299,0.851851852 1.81,0.851851852 C2.4966701,0.851851852 2.9599988,1.01881315 3.2,1.35274074 C3.4400012,1.68666834 3.56,2.19436696 3.56,2.87585185 L3.56,7.29185185 C4.2000032,6.54221847 5.153327,6.16740741 6.42,6.16740741 C7.4733386,6.16740741 8.4466622,6.53540373 9.34,7.27140741 C9.7933356,7.65303895 10.1566653,8.19481131 10.43,8.89674074 C10.7033347,9.59867018 10.84,10.4130324 10.84,11.3398519 C10.84,12.2666713 10.6866682,13.094663 10.38,13.8238519 C10.0733318,14.5530407 9.6600026,15.1288868 9.14,15.5514074 C8.0866614,16.4100784 6.860007,16.8394074 5.46,16.8394074 C4.8066634,16.8394074 4.1633365,16.7405936 3.53,16.542963 C2.8966635,16.3453323 2.4266682,16.1442973 2.12,15.9398519 L1.68,15.6536296 L1.68,2.46696296 Z M5.46,15.2447407 C6.5400054,15.2447407 7.3833303,14.9210403 7.99,14.2736296 C8.5966697,13.626219 8.9,12.7096356 8.9,11.5238519 C8.9,10.3380681 8.6066696,9.41466997 8.02,8.75362963 C7.4333304,8.09258929 6.80667,7.76207407 6.14,7.76207407 C5.0333278,7.76207407 4.1733364,8.09599666 3.56,8.76385185 L3.56,14.8971852 L3.8,14.9585185 C4.5066702,15.1493343 5.059998,15.2447407 5.46,15.2447407 Z M18.7999998,16.8394074 C17.2933256,16.8394074 16.0700045,16.3998562 15.1299998,15.5207407 C14.1899951,14.6416252 13.7199998,13.3570455 13.7199998,11.666963 C13.7199998,9.97688044 14.199995,8.63778272 15.1599998,7.64962963 C16.1200046,6.66147654 17.2399934,6.16740741 18.5199998,6.16740741 C21.560015,6.16740741 23.0799998,8.00738901 23.0799998,11.6874074 L15.6599998,11.6874074 L15.6599998,11.7896296 C15.6599998,12.7573382 15.9933298,13.5751078 16.6599998,14.242963 C17.3266698,14.9108182 18.2333274,15.2447407 19.3799998,15.2447407 C19.8733356,15.2447407 20.3399976,15.1868154 20.7799998,15.070963 C21.220002,14.9551105 21.5399988,14.8358525 21.7399998,14.7131852 L22.0199998,14.5496296 L22.5999998,15.6127407 C22.5599996,15.6400001 22.5033335,15.684296 22.4299998,15.7456296 C22.3566661,15.8069633 22.200001,15.9057771 21.9599998,16.0420741 C21.7199986,16.1783711 21.4600012,16.3010365 21.1799998,16.4100741 C20.4733296,16.6962977 19.6800042,16.8394074 18.7999998,16.8394074 Z M21.2199998,10.378963 C21.1533328,9.5339217 20.8833355,8.88992814 20.4099998,8.44696296 C19.9366641,8.00399779 19.3233369,7.78251852 18.5699998,7.78251852 C17.8166627,7.78251852 17.1933356,7.99718304 16.6999998,8.42651852 C16.206664,8.855854 15.8866672,9.50666231 15.7399998,10.378963 L21.2199998,10.378963 Z M25.0999997,6.43318519 L30.1999997,6.43318519 L30.1999997,7.33274074 L28.8399997,7.82340741 L31.4399997,14.610963 L33.9399997,7.82340741 L32.5799997,7.33274074 L32.5799997,6.43318519 L37.5799997,6.43318519 L37.5799997,7.33274074 L35.9799997,7.8642963 L32.3399997,16.634963 L30.3399997,16.634963 L26.6999997,7.8642963 L25.0999997,7.33274074 L25.0999997,6.43318519 Z M49.6999995,15.2447407 L49.6999995,16.4714074 C49.1799969,16.7303717 48.6066693,16.8598519 47.9799995,16.8598519 C47.3533297,16.8598519 46.9033342,16.7371864 46.6299995,16.4918519 C46.3566648,16.2465173 46.1999997,15.8921505 46.1599995,15.4287407 C45.4266625,16.3828196 44.4633388,16.8598519 43.2699995,16.8598519 C42.0766602,16.8598519 41.1733359,16.614521 40.5599995,16.1238519 C39.9466631,15.6331827 39.6399995,14.9448933 39.6399995,14.058963 C39.6399995,12.3552507 40.7999879,11.3739272 43.1199995,11.114963 L46.1399995,10.7878519 L46.1399995,10.194963 C46.1399995,9.40444049 45.9800011,8.80474279 45.6599995,8.39585185 C45.3399979,7.98696092 44.8333363,7.78251852 44.1399995,7.78251852 C42.8599931,7.78251852 41.8200035,7.9256282 41.0199995,8.21185185 L40.6199995,8.35496296 L40.2599995,7.04651852 C40.6333347,6.82844335 41.1999957,6.62740833 41.9599995,6.44340741 C42.7200033,6.25940649 43.4266629,6.16740741 44.0799995,6.16740741 C45.5066733,6.16740741 46.5199965,6.45703414 47.1199995,7.0362963 C47.7200025,7.61555845 48.0199995,8.42992068 48.0199995,9.47940741 L48.0199995,15.2447407 L49.6999995,15.2447407 Z M43.2199995,12.4438519 C42.7133303,12.5120003 42.310001,12.6687395 42.0099995,12.9140741 C41.709998,13.1594086 41.5599995,13.4899238 41.5599995,13.9056296 C41.5599995,14.3213354 41.7233312,14.6484433 42.0499995,14.886963 C42.3766678,15.1254827 42.8333299,15.2447407 43.4199995,15.2447407 C44.5266717,15.2447407 45.4333293,14.9380771 46.1399995,14.3247407 L46.1399995,12.1167407 L43.2199995,12.4438519 Z M56.9199994,22.1754074 L51.6599994,22.1754074 L51.6599994,21.2962963 L53.3599994,20.6216296 L53.3599994,7.70074074 L51.6799994,7.70074074 L51.6799994,6.5762963 C52.200002,6.31733204 52.7699963,6.18785185 53.3899994,6.18785185 C54.0100025,6.18785185 54.4533314,6.30370255 54.7199994,6.53540741 C54.9866674,6.76711227 55.1466658,7.1078496 55.1999994,7.55762963 C55.853336,6.63081018 56.8266596,6.16740741 58.1199994,6.16740741 C59.173338,6.16740741 60.1466616,6.53540373 61.0399994,7.27140741 C61.493335,7.65303895 61.8566647,8.19481131 62.1299994,8.89674074 C62.4033341,9.59867018 62.5399994,10.4130324 62.5399994,11.3398519 C62.5399994,12.2666713 62.3866676,13.094663 62.0799994,13.8238519 C61.7733312,14.5530407 61.360002,15.1288868 60.8399994,15.5514074 C59.7866608,16.4100784 58.5600064,16.8394074 57.1599994,16.8394074 C56.5999966,16.8394074 55.960003,16.744001 55.2399994,16.5531852 L55.2399994,20.6216296 L56.9199994,21.2962963 L56.9199994,22.1754074 Z M57.1599994,15.2242963 C58.2400048,15.2242963 59.0833297,14.8971885 59.6899994,14.242963 C60.2966691,13.5887375 60.5999994,12.6755614 60.5999994,11.5034074 C60.5999994,10.3312534 60.306669,9.41466997 59.7199994,8.75362963 C59.1333298,8.09258929 58.5066694,7.76207407 57.8399994,7.76207407 C56.6799936,7.76207407 55.8133356,8.13688514 55.2399994,8.88651852 L55.2399994,14.8562963 C55.9866698,15.1016309 56.6266634,15.2242963 57.1599994,15.2242963 Z M70.2999992,22.1754074 L65.0399992,22.1754074 L65.0399992,21.2962963 L66.7399992,20.6216296 L66.7399992,7.70074074 L65.0599992,7.70074074 L65.0599992,6.5762963 C65.5800018,6.31733204 66.1499961,6.18785185 66.7699992,6.18785185 C67.3900023,6.18785185 67.8333312,6.30370255 68.0999992,6.53540741 C68.3666672,6.76711227 68.5266656,7.1078496 68.5799992,7.55762963 C69.2333358,6.63081018 70.2066594,6.16740741 71.4999992,6.16740741 C72.5533378,6.16740741 73.5266614,6.53540373 74.4199992,7.27140741 C74.8733348,7.65303895 75.2366645,8.19481131 75.5099992,8.89674074 C75.7833339,9.59867018 75.9199992,10.4130324 75.9199992,11.3398519 C75.9199992,12.2666713 75.7666674,13.094663 75.4599992,13.8238519 C75.153331,14.5530407 74.7400018,15.1288868 74.2199992,15.5514074 C73.1666606,16.4100784 71.9400062,16.8394074 70.5399992,16.8394074 C69.9799964,16.8394074 69.3400028,16.744001 68.6199992,16.5531852 L68.6199992,20.6216296 L70.2999992,21.2962963 L70.2999992,22.1754074 Z M70.5399992,15.2242963 C71.6200046,15.2242963 72.4633295,14.8971885 73.0699992,14.242963 C73.6766689,13.5887375 73.9799992,12.6755614 73.9799992,11.5034074 C73.9799992,10.3312534 73.6866688,9.41466997 73.0999992,8.75362963 C72.5133296,8.09258929 71.8866692,7.76207407 71.2199992,7.76207407 C70.0599934,7.76207407 69.1933354,8.13688514 68.6199992,8.88651852 L68.6199992,14.8562963 C69.3666696,15.1016309 70.0066632,15.2242963 70.5399992,15.2242963 Z" id="bevapp" stroke="#054A74" stroke-width="1.08333333"></path>
            <path d="M82.6851852,3.13712472 L82.6851852,4.6858727 C82.6844557,4.85207861 82.7518704,5.01064857 82.8703704,5.12145747 L82.8703704,6.79120326 C82.4939376,6.9310328 82.1522978,7.10466151 81.9039352,7.3719823 C81.5609748,7.74112262 81.3888889,8.24614686 81.3888889,8.7513376 L81.3888889,9.52571159 C81.0820773,9.52574366 80.8333648,9.78574826 80.8333333,10.1064906 L80.8333333,18.6246026 C80.8333597,18.9453487 81.0820737,19.2053592 81.3888889,19.2053913 L96.9444444,19.2053913 C97.2512596,19.2053592 97.4999736,18.9453487 97.5,18.6246026 L97.5,10.1064906 C97.5015265,9.80795868 97.2863289,9.55683159 97.0023148,9.52571159 C96.9830378,9.52466067 96.9637215,9.52466067 96.9444444,9.52571159 L96.9444444,8.7513376 C96.9444444,8.24614686 96.7723585,7.74112262 96.4293981,7.3719823 C96.1810356,7.10466151 95.8393957,6.9310328 95.462963,6.79120326 L95.462963,5.12145747 C95.5814629,5.01064857 95.6488776,4.85207861 95.6481481,4.6858727 L95.6481481,3.13712472 C95.6496756,2.83859204 95.4344778,2.58746382 95.150463,2.55634375 C95.1311859,2.55529283 95.1118696,2.55529283 95.0925926,2.55634375 L92.8703704,2.55634375 C92.5635581,2.55637582 92.3148453,2.81638159 92.3148148,3.13712472 L92.3148148,4.6858727 C92.3140853,4.85207861 92.3815,5.01064857 92.5,5.12145747 L92.5,6.79120326 C92.1427002,6.92392565 91.8186698,7.09084215 91.5740741,7.33568373 C91.3294783,7.09084215 91.005448,6.92392565 90.6481481,6.79120326 L90.6481481,5.12145747 C90.7666481,5.01064857 90.8340628,4.85207861 90.8333333,4.6858727 L90.8333333,3.13712472 C90.8348608,2.83859204 90.619663,2.58746382 90.3356481,2.55634375 C90.3163711,2.55529283 90.2970548,2.55529283 90.2777778,2.55634375 L88.0555556,2.55634375 C87.7487433,2.55637582 87.5000305,2.81638159 87.5,3.13712472 L87.5,4.6858727 C87.4992705,4.85207861 87.5666852,5.01064857 87.6851852,5.12145747 L87.6851852,6.79120326 C87.3278854,6.92392565 87.003855,7.09084215 86.7592593,7.33568373 C86.5146635,7.09084215 86.1906331,6.92392565 85.8333333,6.79120326 L85.8333333,5.12145747 C85.9518333,5.01064857 86.019248,4.85207861 86.0185185,4.6858727 L86.0185185,3.13712472 C86.018488,2.81638159 85.7697753,2.55637582 85.462963,2.55634375 L83.2407407,2.55634375 C83.2214637,2.55529283 83.2021474,2.55529283 83.1828704,2.55634375 C82.8988556,2.58746382 82.6836578,2.83859204 82.6851852,3.13712472 Z M83.7962963,3.7179057 L84.9074074,3.7179057 L84.9074074,4.10509173 L83.7962963,4.10509173 L83.7962963,3.7179057 Z M88.6111111,3.7179057 L89.7222222,3.7179057 L89.7222222,4.10509173 L88.6111111,4.10509173 L88.6111111,3.7179057 Z M93.4259259,3.7179057 L94.537037,3.7179057 L94.537037,4.10509173 L93.4259259,4.10509173 L93.4259259,3.7179057 Z M83.9814815,5.26665368 L84.7222222,5.26665368 L84.7222222,7.20258962 C84.7240622,7.47285712 84.903979,7.70608356 85.15625,7.76522034 C85.5919289,7.86733996 85.8568759,8.02736033 86.0011574,8.18265679 C86.1454389,8.33795132 86.2037037,8.49444231 86.2037037,8.7513376 L86.2037037,9.52571159 L82.5,9.52571159 L82.5,8.7513376 C82.5,8.49444231 82.5582648,8.33795132 82.7025463,8.18265679 C82.8468278,8.02736033 83.1117748,7.86733996 83.5474537,7.76522034 C83.7997247,7.70608356 83.9796415,7.47285712 83.9814815,7.20258962 L83.9814815,5.26665368 Z M88.7962963,5.26665368 L89.537037,5.26665368 L89.537037,7.20258962 C89.538877,7.47285712 89.7187938,7.70608356 89.9710648,7.76522034 C90.4067437,7.86733996 90.6716907,8.02736033 90.8159722,8.18265679 C90.9602537,8.33795132 91.0185185,8.49444231 91.0185185,8.7513376 L91.0185185,9.52571159 L87.3148148,9.52571159 L87.3148148,8.7513376 C87.3148148,8.49444231 87.3730796,8.33795132 87.5173611,8.18265679 C87.6616426,8.02736033 87.9265896,7.86733996 88.3622685,7.76522034 C88.6145395,7.70608356 88.7944564,7.47285712 88.7962963,7.20258962 L88.7962963,5.26665368 Z M93.6111111,5.26665368 L94.3518519,5.26665368 L94.3518519,7.20258962 C94.3536918,7.47285712 94.5336087,7.70608356 94.7858796,7.76522034 C95.2215585,7.86733996 95.4865056,8.02736033 95.630787,8.18265679 C95.7750685,8.33795132 95.8333333,8.49444231 95.8333333,8.7513376 L95.8333333,9.52571159 L92.1296296,9.52571159 L92.1296296,8.7513376 C92.1296296,8.49444231 92.1878944,8.33795132 92.3321759,8.18265679 C92.4764574,8.02736033 92.7414044,7.86733996 93.1770833,7.76522034 C93.4293543,7.70608356 93.6092712,7.47285712 93.6111111,7.20258962 L93.6111111,5.26665368 L93.6111111,5.26665368 Z M81.9444444,10.6872794 L86.71875,10.6872794 L86.7592593,10.6872794 L91.6319444,10.6872794 L93.9814815,10.6872794 L96.3888889,10.6872794 L96.3888889,18.0438332 L81.9444444,18.0438332 L81.9444444,10.6872794 L81.9444444,10.6872794 Z M86.9444444,11.2680487 C86.2359057,11.2680487 85.6481481,11.8825049 85.6481481,12.6232095 C85.6481481,13.363914 86.2359061,13.9783703 86.9444444,13.9783703 L91.3888889,13.9783703 C92.0974276,13.9783703 92.6851852,13.363914 92.6851852,12.6232095 C92.6851852,11.8825049 92.0974272,11.2680487 91.3888889,11.2680487 L86.9444444,11.2680487 Z M86.9444444,12.4296068 L91.3888889,12.4296068 C91.5010904,12.4296068 91.5740741,12.5059056 91.5740741,12.6232095 C91.5740741,12.7405134 91.5010907,12.8167928 91.3888889,12.8167928 L86.9444444,12.8167928 C86.832243,12.8167928 86.7592593,12.7405134 86.7592593,12.6232095 C86.7592593,12.5059056 86.8322426,12.4296068 86.9444444,12.4296068 Z" id="Shape" transform="translate(89.166671, 10.880473) rotate(15.000000) translate(-89.166671, -10.880473) "></path>
        </g>
    </g>
</svg>