<?xml version="1.0" encoding="UTF-8"?>
<svg width="106px" height="103px" viewBox="0 0 106 103" version="1.1" xmlns="http://www.w3.org/2000/svg" xmlns:xlink="http://www.w3.org/1999/xlink">
    <!-- Generator: Sketch 63.1 (92452) - https://sketch.com -->
    <title>Group 7 Copy</title>
    <desc>Created with Sketch.</desc>
    <g id="Bevapp-Dashboard" stroke="none" stroke-width="1" fill="none" fill-rule="evenodd">
        <g id="Desktop-HD" transform="translate(-1193.000000, -559.000000)">
            <g id="Group-2" transform="translate(1171.000000, 306.000000)">
                <g id="Add-Beverage-Button" transform="translate(0.000000, 250.000000)">
                    <g id="Group-7-Copy" transform="translate(17.599999, 0.000000)">
                        <path d="M102.621493,13.4629248 C101.71912,13.511804 101.025962,14.2808321 101.070738,15.1834174 L101.145294,17.5342768 C101.115287,18.1510162 101.433905,18.732425 101.969893,19.0389931 C102.505882,19.3455612 103.168565,19.3254242 103.68495,18.9868776 C104.201336,18.6483309 104.484064,18.0486489 104.416665,17.4348694 L104.34211,15.060028 C104.33129,14.6179596 104.142576,14.1989528 103.818698,13.8978801 C103.494821,13.5968074 103.063174,13.4391352 102.621493,13.4605639 L102.621493,13.4629248 Z" id="Path" fill="#000000" fill-rule="nonzero"></path>
                        <path d="M106.159649,18.6973427 C105.252767,18.6678811 104.492471,19.3766211 104.458283,20.283337 C104.424096,21.1900528 105.128864,21.9540325 106.035389,21.9929446 L107.998436,22.1631797 C108.585196,22.2195157 109.15714,21.9570466 109.497042,21.475458 C109.836945,20.9938694 109.892658,20.3670477 109.643022,19.8330597 C109.393386,19.2990717 108.876701,18.9398428 108.289202,18.8918083 L106.32628,18.7215732 C106.270009,18.7103194 106.213186,18.7020241 106.156045,18.6967214 L106.159649,18.6973427 Z" id="Path" fill="#000000" fill-rule="nonzero"></path>
                        <path d="M102.936614,22.3807575 C102.49902,22.3854767 102.081424,22.5647281 101.776575,22.8786998 C101.471725,23.1926715 101.304862,23.6153698 101.313044,24.0529133 L101.313044,25.8218669 C101.260959,26.4391828 101.560843,27.0332414 102.088452,27.3579253 C102.616062,27.6826093 103.281521,27.6826093 103.809131,27.3579253 C104.33674,27.0332414 104.636624,26.4391828 104.584539,25.8218669 L104.584539,24.0529133 C104.592778,23.6111616 104.422595,23.1847394 104.112463,22.8700478 C103.802332,22.5553562 103.378439,22.3789674 102.936614,22.3807575 L102.936614,22.3807575 Z" id="Path" fill="#000000" fill-rule="nonzero"></path>
                        <path d="M97.3387381,18.7456795 C96.4867873,18.838398 95.8495122,19.5708727 95.8755393,20.4274586 C95.9015664,21.2840445 96.5821371,21.9764768 97.4381454,22.0172994 L99.4979898,22.1626826 C100.096613,22.231913 100.685044,21.9675846 101.030887,21.4740919 C101.376729,20.9805992 101.424379,20.3372874 101.155015,19.7982274 C100.885652,19.2591674 100.342585,18.9110307 99.7402952,18.8913113 L97.6563446,18.745928 C97.5513826,18.7357907 97.4456881,18.7357907 97.3407262,18.745928 L97.3387381,18.7456795 Z" id="Path" fill="#000000" fill-rule="nonzero"></path>
                        <path d="M92.2371533,9.84188806 C92.2371533,10.6346616 91.3760372,11.1370415 90.5830151,11.1370415 C89.7902415,11.1370415 88.9928704,10.4300068 88.9928704,9.6366119 C88.9928704,8.84383834 89.827892,8.08486328 90.6214112,8.08486328 C91.4141847,8.08486328 92.2371533,9.0491145 92.2371533,9.84188806 L92.2371533,9.84188806 Z" id="Path" fill="#000000" fill-rule="nonzero"></path>
                        <path d="M106.309878,35.1584531 C106.309878,35.9512266 105.448762,36.4536065 104.655616,36.4536065 C103.862842,36.4536065 103.065595,35.7465718 103.065595,34.9531769 C103.065595,34.1604034 103.900617,33.4014283 104.694136,33.4014283 C105.486909,33.4014283 106.309878,34.3656795 106.309878,35.1584531 L106.309878,35.1584531 Z" id="Path" fill="#000000" fill-rule="nonzero"></path>
                        <path d="M14.9136487,26.5154817 C14.9136487,27.3082552 14.0525326,27.8107593 13.2593863,27.8107593 C12.4666127,27.8107593 11.6693658,27.1037246 11.6693658,26.3103298 C11.6693658,25.5175562 12.5043875,24.7585811 13.2979066,24.7585811 C14.0906802,24.7585811 14.9136487,25.7228324 14.9136487,26.5154817 Z" id="Path" fill="#000000" fill-rule="nonzero"></path>
                        <path d="M7.83510037,35.4406457 C7.83510037,36.2334192 6.97398426,36.7357991 6.18083793,36.7357991 C5.38806437,36.7357991 4.59081748,36.0287644 4.59081748,35.2354938 C4.59081748,34.4427202 5.42583916,33.6837452 6.21935827,33.6837452 C7.01213183,33.6837452 7.83510037,34.6479964 7.83510037,35.4406457 L7.83510037,35.4406457 Z" id="Path" fill="#000000" fill-rule="nonzero"></path>
                        <path d="M12.595221,3.96355911 C11.9266331,3.9867465 11.3390016,4.41333813 11.1098572,5.04186036 C10.8807127,5.67038258 11.0559024,6.37508093 11.5526865,6.82313558 L13.2733033,8.42235121 C13.687024,8.87858786 14.3213127,9.06485984 14.9160298,8.90477182 C15.510747,8.7446838 15.9658182,8.26517412 16.0946062,7.66290313 C16.2233941,7.06063215 16.0042272,6.43694531 15.526992,6.04763405 L13.8063752,4.42393936 C13.4823658,4.110712 13.0438331,3.94446498 12.5936056,3.9641804 L12.595221,3.96355911 Z" id="Path" fill="#000000" fill-rule="nonzero"></path>
                        <path d="M20.3015267,3.93920431 C19.9282188,3.94851821 19.5692427,4.0848327 19.283844,4.32565035 L17.7811778,5.5860112 C17.3308198,5.96259135 17.1156241,6.5508611 17.2166787,7.12915416 C17.3177333,7.70744722 17.7196798,8.18787365 18.2710603,8.38940366 C18.8224409,8.59093367 19.4394559,8.48293839 19.8896075,8.1061116 L21.3920253,6.87097536 C21.9550848,6.43033176 22.1681762,5.67592588 21.9188625,5.0058173 C21.6695488,4.33570872 21.0151793,3.90404139 20.3010297,3.93858301 L20.3015267,3.93920431 Z" id="Path" fill="#000000" fill-rule="nonzero"></path>
                        <path d="M12.67175,52.0778891 L12.67175,105.437883 L105.47174,105.437883 C103.925073,96.6664285 103.15174,87.8137979 103.15174,78.8799914 C103.15174,72.5485921 103.540152,66.2170785 104.316977,59.8854505 C104.785072,56.0701579 102.071633,52.597785 98.2563411,52.1296885 C97.9751374,52.0951877 97.6920895,52.0778891 97.4087773,52.0778891 L12.67175,52.0778891 L12.67175,52.0778891 Z" id="Path-2" fill-opacity="0.691324301" fill="#8B572A"></path>
                        <path d="M18.992829,10.0946312 C18.3549683,10.1534969 17.8096141,10.5780216 17.5960449,11.1819419 C17.3824757,11.7858622 17.5397083,12.4588483 17.9987556,12.9056224 L19.2588679,14.1656104 C19.6735905,14.5853666 20.2813678,14.7508424 20.8516437,14.5992658 C21.4219196,14.4476891 21.8673269,14.0022818 22.0189036,13.4320058 C22.1704803,12.8617299 22.0050045,12.2539527 21.5852483,11.8392301 L20.3251359,10.6040939 C19.9815292,10.2404327 19.4908342,10.0533227 18.992332,10.0958738 L18.992829,10.0946312 Z" id="Path" fill="#000000" fill-rule="nonzero"></path>
                        <polygon id="Path-3" fill="#B8E986" points="89.2317416 48.7199947 88.0717418 52.1999943 68.3517439 52.1999943 68.3517439 44.0799952 74.1517433 19.7199979 81.1117425 20.8799977"></polygon>
                        <polygon id="Path-3-Copy" fill="#B8E986" points="67.191744 48.7199947 66.0317442 52.1999943 46.3117463 52.1999943 46.3117463 44.0799952 52.1117457 19.7199979 59.0717449 20.8799977"></polygon>
                        <polygon id="Path-3-Copy-2" fill="#B8E986" points="46.3117463 48.7199947 45.1517464 52.1999943 25.4317486 52.1999943 25.4317486 44.0799952 31.231748 19.7199979 38.1917472 20.8799977"></polygon>
                        <path d="M14.2431462,9.97335427 C13.8749956,9.99490094 13.5248242,10.1397844 13.2490728,10.3846522 L11.6738392,11.7415624 C11.2043678,12.11889 10.9792398,12.7230185 11.0872904,13.3155592 C11.1953411,13.9081 11.6192159,14.3938819 12.191654,14.5812158 C12.7640922,14.7685497 13.3931516,14.6273469 13.8306057,14.213326 L15.3814845,12.8562915 C15.9106911,12.400244 16.093291,11.6592235 15.836563,11.0095085 C15.5798351,10.3597935 14.9400288,9.94373814 14.2420279,9.97260872 L14.2431462,9.97335427 Z" id="Path" fill="#000000" fill-rule="nonzero"></path>
                        <path d="M12.8861117,51.1697453 C12.012087,51.1918852 11.3087875,51.8951847 11.2866476,52.7692094 L10.4136778,102.253439 C10.4049074,102.712576 10.5882247,103.154675 10.9197973,103.472411 C11.2513699,103.790146 11.7008772,103.954463 12.1591955,103.925471 C42.1200716,101.966525 71.8165241,103.669497 101.700732,104.21639 C102.16953,104.220798 102.617909,104.0247 102.932814,103.677385 C103.247719,103.330071 103.399098,102.864686 103.348782,102.398574 C101.577219,84.666789 103.56375,69.334946 103.664437,52.5267797 C103.668549,51.6429902 102.972244,50.9145541 102.089166,50.8788545 C72.0432971,49.385632 41.8521688,50.4738939 12.8861117,51.1697453 Z M100.367928,54.1504744 C100.165386,69.5080391 98.6379921,84.1913734 100.077162,100.920635 C71.4212557,100.356498 42.7839884,98.891607 13.7343049,100.653478 L14.5581432,54.4407439 C42.5698898,53.7573184 71.5522249,52.8033807 100.367928,54.1499774 L100.367928,54.1504744 Z" id="Shape" fill="#000000" fill-rule="nonzero"></path>
                        <polygon id="Path" fill="#000000" fill-rule="nonzero" points="12.9345728 67.9876038 12.9345728 71.28333 101.870346 71.5740964 101.870346 68.278246"></polygon>
                        <polygon id="Path" fill="#000000" fill-rule="nonzero" points="101.845991 84.5390506 12.6195758 85.5567333 12.6692794 88.8281047 101.895943 87.810422"></polygon>
                        <path d="M30.5279328,20.2966826 L28.5648863,39.9739933 C27.348389,40.5542836 26.0037804,41.1221481 24.7601945,42.1551146 C23.2492029,43.4111264 22.0329541,45.4678643 22.2400941,48.0195266 L22.6750013,53.3749729 L25.9466212,53.1078157 L25.5092289,47.7523693 C25.3849697,46.2209992 25.8857342,45.5148343 26.8662634,44.6990728 C27.8479109,43.8839326 29.3818904,43.1829866 30.8647995,42.4452598 C31.3687464,42.1921647 31.7075012,41.6981082 31.7619507,41.1368107 L33.7976889,20.6111825 L30.5279328,20.2966826 Z" id="Path" fill="#000000" fill-rule="nonzero"></path>
                        <path d="M40.8753674,20.2966826 L37.603996,20.6123009 L39.6394856,41.137929 C39.6939352,41.6992266 40.0326899,42.193283 40.5366369,42.4463782 C42.0194217,43.1844777 43.5535255,43.8843054 44.535173,44.7001911 C44.7836913,44.907704 44.9924468,45.0965779 45.165167,45.3053333 L47.6855159,43.2211341 C47.3537439,42.8185344 46.9933923,42.4668809 46.6193722,42.1549904 C45.3854785,41.1286096 44.0490711,40.5761533 42.8389109,39.9980996 L40.8753674,20.2966826 Z" id="Path" fill="#000000" fill-rule="nonzero"></path>
                        <path d="M51.8531688,20.2966826 L49.8901223,39.9739933 C48.6736249,40.5542836 47.3290164,41.1221481 46.0854305,42.1551146 C44.5744389,43.4111264 43.35819,45.4678643 43.5653301,48.0195266 L44.0002372,53.3749729 L47.2716086,53.1078157 L46.8354589,47.7523693 C46.7111997,46.2209992 47.2107216,45.5148343 48.1924934,44.6990728 C49.1741409,43.8839326 50.7081205,43.1829866 52.1910295,42.4452598 C52.6949765,42.1921647 53.0337312,41.6981082 53.0881808,41.1368107 L55.1237946,20.6111825 L51.8531688,20.2966826 Z" id="Path" fill="#000000" fill-rule="nonzero"></path>
                        <path d="M62.2006033,20.2966826 L58.929232,20.6123009 L60.9647216,41.137929 C61.0191711,41.6992266 61.3579259,42.193283 61.8618728,42.4463782 C63.3500007,43.1869629 64.9177788,43.8835598 65.90887,44.7001911 C66.9004583,45.5165739 67.3523889,46.1934137 67.1930886,47.7051508 L66.7569389,51.8489459 L70.0284346,52.1894161 L70.4645843,48.0454967 C70.7354693,45.4831482 69.5189719,43.4142329 67.9928207,42.1568543 C66.7442645,41.1279883 65.3782833,40.5773959 64.1638984,39.9999635 L62.2006033,20.2966826 Z" id="Path" fill="#000000" fill-rule="nonzero"></path>
                        <path d="M82.5080324,20.2966826 L79.236661,20.6123009 L81.2721506,41.137929 C81.3266001,41.6992266 81.6653549,42.193283 82.1693018,42.4463782 C83.6522109,43.1844777 85.186439,43.8844296 86.1678379,44.7001911 C87.1494855,45.5153313 87.6249011,46.2221176 87.5007662,47.7534877 L87.0633738,53.108934 L90.3347452,53.3760912 L90.770895,48.0206449 C90.9784078,45.4689827 89.7855197,43.4122447 88.2749008,42.156233 C87.0314392,41.1223966 85.6865821,40.5562718 84.4702091,39.9751116 L82.5080324,20.2966826 Z" id="Path" fill="#000000" fill-rule="nonzero"></path>
                        <path d="M72.1604735,20.2966826 L70.1975513,39.9739933 C68.9810539,40.5542836 67.6364454,41.1221481 66.3929838,42.1551146 C66.0189636,42.4670052 65.6573694,42.8186587 65.32684,43.2212584 L67.8712952,45.3054576 C68.0440155,45.094217 68.2540135,44.905343 68.5012893,44.7003154 C69.4829368,43.8839326 71.0170406,43.1842292 72.4999496,42.4465024 C73.0038966,42.1934073 73.3426513,41.6993508 73.3971009,41.1380533 L75.4327147,20.6124251 L72.1604735,20.2966826 Z" id="Path" fill="#000000" fill-rule="nonzero"></path>
                        <path d="M39.2759033,13.9718904 C35.8328057,14.1284569 35.1070078,13.9834465 32.01283,14.021594 C31.9755523,14.028304 31.9258486,14.03402 31.8885708,14.0464459 C30.1476997,14.2253791 29.13623,15.4311902 28.5927204,16.6394864 C28.0422522,17.8659245 28.2236706,18.901252 28.3255632,19.8140599 C28.4249705,20.7273649 28.5927204,21.4860914 28.5927204,21.4860914 C28.7666832,22.2167354 29.4165587,22.7363873 30.167954,22.7462037 L40.9935379,23.1164961 C41.7564892,23.128922 42.4283586,22.620702 42.616984,21.8813599 C42.616984,21.8813599 42.8033728,21.1681122 42.9326024,20.2818957 C43.0618319,19.3959278 43.2507059,18.3773753 42.833195,17.1801381 C42.6418359,16.6284274 42.3510694,15.959913 41.8639734,15.314138 C41.37812,14.6679903 40.5048265,13.8941041 39.2709329,13.9813341 L39.2759033,13.9718904 Z M39.2510514,17.2930897 C39.401405,17.4919044 39.6188586,17.9218411 39.7356622,18.2623113 C39.7305676,18.2498854 39.7853659,19.0985756 39.6859585,19.7890838 L31.5989227,19.4921044 C31.5959405,19.4672525 31.6017807,19.4672525 31.5989227,19.4424007 C31.5243672,18.7453067 31.5616449,18.0390175 31.5989227,17.9640893 C31.7418207,17.6335598 32.1829408,17.3117286 32.2040649,17.310486 C34.5516935,17.2235046 36.9024287,17.2483564 39.2510514,17.2980601 L39.2510514,17.2930897 Z" id="Shape" fill="#000000" fill-rule="nonzero"></path>
                        <path d="M61.4251018,12.857037 C58.1001747,13.0931295 57.4893166,12.9191666 55.2700477,12.9564444 L53.210079,13.006148 C53.1616417,13.004001 53.1131331,13.004001 53.0646958,13.006148 C51.3239489,13.1850813 50.3367098,14.3907681 49.7932001,15.5990643 C49.242732,16.826745 49.4005298,17.8850604 49.5024336,18.7978683 C49.601841,19.7111733 49.7932001,20.4456693 49.7932001,20.4456693 C49.9655278,21.1682603 50.6016364,21.6850667 51.3442032,21.7057816 L63.1455944,21.9729389 C63.9083761,21.9882025 64.5811292,21.4759279 64.7692891,20.7365601 C64.7692891,20.7365601 64.9556779,20.0233124 65.0849074,19.1370959 C65.2141369,18.251128 65.4030109,17.256806 64.9855001,16.0595688 C64.7941409,15.5078581 64.5269837,14.8393437 64.0398877,14.1935688 C63.5540343,13.547421 62.6565103,12.7734106 61.4227409,12.8606405 L61.4251018,12.857037 Z M61.6674072,16.1286569 C61.3753981,16.1535088 61.2747482,15.9534515 61.4251018,16.1535088 C61.5754554,16.3523235 61.7680571,16.7822602 61.8861034,17.1227304 C61.8808845,17.1104287 61.935807,17.9838465 61.8363997,18.6736092 L52.7730595,18.454913 C52.7715684,18.4424871 52.7745506,18.4436054 52.7730595,18.4300612 C52.698504,17.7329672 52.8103372,16.8793066 52.7730595,16.951874 C52.9258983,16.6114038 53.4539998,16.2684485 53.4030535,16.2734189 L55.3417452,16.2237152 C57.3771106,16.1864375 58.2025643,16.3728262 61.6665374,16.1243079 L61.6674072,16.1286569 Z" id="Shape" fill="#000000" fill-rule="nonzero"></path>
                        <path d="M81.6356087,12.7360086 C78.3105573,12.972101 77.6996992,12.82299 75.4804303,12.8602678 L73.4207101,12.8851196 C73.3719012,12.8912212 73.3233912,12.8995135 73.2753269,12.9099714 C71.5344558,13.0889047 70.5469681,14.2945915 70.003707,15.5027635 C69.4532388,16.7304441 69.6110367,17.7890081 69.7129405,18.7016917 C69.8123478,19.6149967 70.003707,20.349617 70.003707,20.349617 C70.1760827,21.0721588 70.8121796,21.5889046 71.55471,21.609605 L83.3562255,21.8767623 C84.1189612,21.8919675 84.7916465,21.3797052 84.9797959,20.6403834 C84.9797959,20.6403834 85.1661847,19.9271358 85.2954143,19.0409193 C85.4246438,18.1549514 85.6135178,17.1363989 85.1960069,15.9390374 C85.0046478,15.3873267 84.7374905,14.7424215 84.2503946,14.0973921 C83.7632986,13.4512444 82.8670171,12.6531277 81.6332477,12.7403577 L81.6356087,12.7360086 Z M81.8779141,16.00738 C81.585905,16.0322318 81.4852551,15.8570264 81.6356087,16.0570836 C81.7859623,16.2558983 81.978564,16.6858351 82.0966102,17.0263052 C82.0913913,17.0138793 82.1463139,17.8625695 82.0469066,18.5529535 L72.9836906,18.3591092 C72.9821995,18.3466833 72.9851817,18.3479259 72.9836906,18.3342574 C72.9091351,17.6371634 73.0209683,16.7835028 72.9836906,16.8560702 C73.1365294,16.5156 73.6646309,16.1726447 73.6136846,16.1776151 L75.5523763,16.1279114 C77.5877417,16.0906336 78.4133197,16.2521706 81.8772928,16.0036522 L81.8779141,16.00738 Z" id="Shape" fill="#000000" fill-rule="nonzero"></path>
                        <path d="M92.6930602,61.3315366 C92.6930602,62.3889822 91.5449054,63.0577451 90.4883296,63.0577451 C89.430884,63.0577451 88.3690893,62.114618 88.3690893,61.0579179 C88.3690893,60.0004723 89.4824515,58.9899967 90.5395244,58.9899967 C91.59697,58.9899967 92.6930602,60.2747123 92.6930602,61.3315366 Z" id="Path" fill="#000000" fill-rule="nonzero"></path>
                        <path d="M92.6930602,78.3059617 C92.6930602,79.3634073 91.5449054,80.0321702 90.4883296,80.0321702 C89.430884,80.0321702 88.3690893,79.089043 88.3690893,78.032343 C88.3690893,76.9748974 89.4824515,75.9644217 90.5395244,75.9644217 C91.59697,75.9644217 92.6930602,77.2492616 92.6930602,78.3059617 Z" id="Path" fill="#000000" fill-rule="nonzero"></path>
                        <path d="M93.7086305,94.1196818 C93.7086305,95.1771274 92.5604756,95.845766 91.5037756,95.845766 C90.44633,95.845766 89.3847838,94.9026389 89.3847838,93.8461873 C89.3847838,92.7887417 90.4981461,91.7782661 91.5549704,91.7782661 C92.612416,91.7782661 93.7086305,93.0629817 93.7086305,94.1196818 Z" id="Path" fill="#000000" fill-rule="nonzero"></path>
                        <path d="M24.9404946,61.3315366 C24.9404946,62.3889822 23.7923398,63.0577451 22.735764,63.0577451 C21.6783184,63.0577451 20.616648,62.114618 20.616648,61.0579179 C20.616648,60.0004723 21.7300102,58.9899967 22.7870831,58.9899967 C23.8445287,58.9899967 24.9404946,60.2747123 24.9404946,61.3315366 L24.9404946,61.3315366 Z" id="Path" fill="#000000" fill-rule="nonzero"></path>
                        <path d="M24.9404946,78.3059617 C24.9404946,79.3634073 23.7923398,80.0321702 22.735764,80.0321702 C21.6783184,80.0321702 20.616648,79.089043 20.616648,78.032343 C20.616648,76.9748974 21.7300102,75.9644217 22.7870831,75.9644217 C23.8445287,75.9644217 24.9404946,77.2492616 24.9404946,78.3059617 L24.9404946,78.3059617 Z" id="Path" fill="#000000" fill-rule="nonzero"></path>
                        <path d="M25.9560649,94.1196818 C25.9560649,95.1771274 24.8079101,95.845766 23.7513343,95.845766 C22.6938887,95.845766 21.6322182,94.9026389 21.6322182,93.8461873 C21.6322182,92.7887417 22.7455805,91.7782661 23.8026533,91.7782661 C24.8600989,91.7782661 25.9560649,93.0629817 25.9560649,94.1196818 L25.9560649,94.1196818 Z" id="Path" fill="#000000" fill-rule="nonzero"></path>
                        <path d="M26.6990105,48.4072152 C26.6286476,48.4276859 26.5628503,48.4614281 26.5051662,48.5066225 C26.3625945,48.6079052 26.2739153,48.7686099 26.2642412,48.9432274 C26.2545671,49.1178449 26.3249515,49.2873619 26.4554625,49.4037738 C26.4858056,49.4321463 26.5191362,49.4571443 26.5548699,49.4783293 L27.6458654,50.1319326 C27.8887309,50.2777322 28.2016209,50.2247639 28.3829651,50.0071508 C28.5643093,49.7895378 28.5599865,49.4722255 28.3727816,49.2596332 C28.3361734,49.2208941 28.2943526,49.1874375 28.2485225,49.1602258 L27.1339176,48.4817707 C27.0039853,48.3993533 26.8464241,48.3724962 26.6965253,48.4072152 L26.6990105,48.4072152 Z" id="Path" fill="#000000" fill-rule="nonzero"></path>
                        <path d="M27.1593908,46.6381373 C26.9494569,46.6880529 26.7851936,46.8513901 26.7340918,47.0610383 C26.6829901,47.2706866 26.7536677,47.4912907 26.9170854,47.6322107 C26.9474284,47.6605832 26.9807591,47.6855812 27.0164927,47.7067662 L29.8276081,49.4273831 C30.1021139,49.5944881 30.4601102,49.5074228 30.6272155,49.2329172 C30.7943208,48.9584116 30.7072558,48.6004152 30.4327503,48.4333096 L27.5974044,46.7126928 C27.4678046,46.6306104 27.3107611,46.6037654 27.1612547,46.6381373 L27.1593908,46.6381373 Z" id="Path" fill="#000000" fill-rule="nonzero"></path>
                        <path d="M27.934768,44.8691836 C27.7039463,44.9278897 27.5332759,45.1229203 27.5057038,45.3594892 C27.4781316,45.5960581 27.599375,45.8251113 27.8105089,45.9353274 L32.2208399,48.4800311 C32.4612668,48.620098 32.7675076,48.5677491 32.9477561,48.3557719 C33.0595788,48.2264749 33.1080195,48.0540989 33.0799164,47.8854802 C33.0518133,47.7168615 32.9500853,47.5695137 32.8023728,47.4834725 L28.3919176,44.9390173 C28.2560613,44.8503759 28.0890647,44.8232954 27.9321586,44.8644618 L27.934768,44.8691836 Z" id="Path" fill="#000000" fill-rule="nonzero"></path>
                        <path d="M29.4615406,43.6090713 C29.2074947,43.6411648 29.0053514,43.8375048 28.9658737,44.0905084 C28.9263959,44.343512 29.0591137,44.5921026 29.2913055,44.7000669 L33.8956051,47.2201673 C34.1189096,47.3404068 34.3946366,47.3000072 34.5740602,47.1207599 C34.6853099,47.0125857 34.7480745,46.8640121 34.7480745,46.7088408 C34.7480745,46.5536694 34.6853099,46.4050958 34.5740602,46.2969216 C34.5374519,46.2581825 34.4956312,46.2247259 34.449801,46.1975142 L29.8455014,43.6774138 C29.729135,43.6075491 29.5917919,43.581137 29.4578128,43.6028583 L29.4615406,43.6090713 Z" id="Path" fill="#000000" fill-rule="nonzero"></path>
                        <path d="M31.6666439,42.7849844 C31.4330381,42.837969 31.2568175,43.0303272 31.2244526,43.26767 C31.1920877,43.5050127 31.3103706,43.7375305 31.5212607,43.8511282 L32.6358655,44.5047314 C32.8679241,44.629313 33.1549734,44.5801518 33.33235,44.3854487 C33.5097266,44.1907456 33.531999,43.9003698 33.386391,43.6808931 C33.3397274,43.6217388 33.2818846,43.5723401 33.2161559,43.5355099 L32.1251603,42.8570547 C31.9889786,42.7680569 31.8214511,42.7409635 31.6641588,42.7824992 L31.6666439,42.7849844 Z" id="Path" fill="#000000" fill-rule="nonzero"></path>
                        <path d="M48.945007,47.9951718 C48.8178333,48.029717 48.7064005,48.1069302 48.6293887,48.2138679 C48.5283216,48.3454209 48.4890498,48.5142382 48.5216759,48.676892 C48.5543019,48.8395459 48.6556409,48.9801586 48.7996237,49.0625581 L49.9154712,49.7161614 C50.1116663,49.834129 50.3591723,49.8243654 50.5454652,49.6913096 C50.6955372,49.5760896 50.7792633,49.394371 50.7693321,49.2054301 C50.759401,49.0164893 50.6570857,48.8445495 50.4957615,48.7456972 L49.4047659,48.0672421 C49.2689097,47.9786007 49.1019131,47.9515202 48.945007,47.9926866 L48.945007,47.9951718 Z" id="Path" fill="#000000" fill-rule="nonzero"></path>
                        <path d="M49.4296178,46.2262181 C49.317861,46.25263 49.2165829,46.3119253 49.1388513,46.3964532 C49.0156579,46.523436 48.9578373,46.7000947 48.98211,46.8753433 C49.0063826,47.050592 49.1100414,47.2048851 49.2631105,47.2936044 L52.0985807,49.0142213 C52.3493762,49.1633786 52.6721473,49.100855 52.8491061,48.8688381 C52.9501731,48.7372851 52.9894449,48.5684678 52.9568189,48.405814 C52.9241928,48.2431601 52.8228539,48.1025474 52.678871,48.0201479 L49.8678799,46.299531 C49.7379475,46.2171136 49.5803864,46.1902565 49.4304876,46.2249755 L49.4296178,46.2262181 Z" id="Path" fill="#000000" fill-rule="nonzero"></path>
                        <path d="M50.2051193,44.4572644 C50.1135073,44.4847983 50.03022,44.5347707 49.9628139,44.6026477 C49.8279069,44.726093 49.7598192,44.9063848 49.7794474,45.0881907 C49.7990756,45.2699966 49.9040751,45.4316015 50.0622212,45.5234082 L54.4970313,48.0677391 C54.7581328,48.246385 55.1145153,48.1804365 55.2943991,47.9201863 C55.4742829,47.6599362 55.4100276,47.3032445 55.1506346,47.1221268 C55.1191829,47.1023854 55.0858914,47.0857396 55.0512273,47.0724231 L50.640772,44.5279679 C50.5108396,44.4455505 50.3532785,44.4186934 50.2033797,44.4534124 L50.2051193,44.4572644 Z" id="Path" fill="#000000" fill-rule="nonzero"></path>
                        <path d="M51.7804772,43.1971521 C51.5188031,43.2114308 51.29995,43.4009683 51.2484426,43.65792 C51.1969352,43.9148718 51.3258273,44.1741167 51.561781,44.2881477 L56.1417258,46.8082481 C56.3845913,46.9540477 56.6974812,46.9010794 56.8788254,46.6834663 C57.0601696,46.4658533 57.0558469,46.148541 56.868642,45.9359487 C56.8338391,45.8884022 56.7919292,45.8464924 56.7443828,45.8116895 C56.7282255,45.8026087 56.7116382,45.794315 56.6946792,45.7868377 L52.1147344,43.266613 C52.0120579,43.2073596 51.8935664,43.1813175 51.7755068,43.1920575 L51.7804772,43.1971521 Z" id="Path" fill="#000000" fill-rule="nonzero"></path>
                        <path d="M53.9855805,42.3731895 C53.7450467,42.4118423 53.5550399,42.5979897 53.5114598,42.8376798 C53.4678798,43.07737 53.5802023,43.3184863 53.7917362,43.4393333 L54.8827318,44.0929365 C55.1469823,44.2212305 55.4654473,44.1295379 55.6210184,43.8803686 C55.7765895,43.6311994 55.7191567,43.3048116 55.487874,43.1237149 L54.3732692,42.4452598 C54.2572484,42.3756869 54.1203987,42.349285 53.9868231,42.3707043 L53.9855805,42.3731895 Z" id="Path" fill="#000000" fill-rule="nonzero"></path>
                        <path d="M71.1184361,47.9951718 C70.9085022,48.0450874 70.7442389,48.2084246 70.6931371,48.4180728 C70.6420354,48.6277211 70.712713,48.8483252 70.8761307,48.9892452 C70.9064737,49.0176177 70.9398044,49.0426157 70.975538,49.0638007 L72.0665336,49.717404 C72.309399,49.8632036 72.622289,49.8102352 72.8036332,49.5926222 C72.9849774,49.3750092 72.9806547,49.0576969 72.7934498,48.8451046 C72.7568415,48.8063655 72.7150208,48.7729089 72.6691906,48.7456972 L71.5545858,48.0672421 C71.4246534,47.9848246 71.2670923,47.9579676 71.1171935,47.9926866 L71.1184361,47.9951718 Z" id="Path" fill="#000000" fill-rule="nonzero"></path>
                        <path d="M71.5788163,46.2262181 C71.3688825,46.2761337 71.2046191,46.4394709 71.1535174,46.6491192 C71.1024156,46.8587675 71.1730932,47.0793715 71.3365109,47.2202915 C71.366854,47.248664 71.4001846,47.273662 71.4359183,47.294847 L74.2469094,49.0154639 C74.4244835,49.1235621 74.6462385,49.1287144 74.8286414,49.0289798 C75.0110443,48.9292452 75.1263837,48.7397759 75.1312125,48.5319431 C75.1360412,48.3241103 75.0296257,48.1294887 74.8520516,48.0213905 L72.0168299,46.3007736 C71.8872301,46.2186913 71.7301867,46.1918462 71.5806802,46.2262181 L71.5788163,46.2262181 Z" id="Path" fill="#000000" fill-rule="nonzero"></path>
                        <path d="M72.3543179,44.4572644 C72.1660718,44.5087725 72.0168453,44.6523192 71.9580748,44.8384258 C71.8993043,45.0245324 71.9390272,45.2277474 72.0635514,45.378025 C72.0983543,45.4255714 72.1402641,45.4674812 72.1878106,45.5022841 C72.2039679,45.5113649 72.2205552,45.5196586 72.2375142,45.527136 L76.6479695,48.0714669 C76.8659779,48.1981929 77.1411382,48.1679555 77.3264246,47.9969114 C77.4613316,47.8734661 77.5294193,47.6931743 77.5097911,47.5113684 C77.4901629,47.3295625 77.3851634,47.1679575 77.2270173,47.0761509 L72.8166863,44.5316957 C72.6808301,44.4430543 72.5138334,44.4159738 72.3569273,44.4571402 L72.3543179,44.4572644 Z" id="Path" fill="#000000" fill-rule="nonzero"></path>
                        <path d="M73.9294272,43.1971521 C73.7148951,43.2155789 73.5286743,43.3524123 73.4469934,43.5516404 C73.3653125,43.7508684 73.4018844,43.979044 73.5417386,44.1427645 C73.5884021,44.2019188 73.646245,44.2513174 73.7119736,44.2881477 L78.3163975,46.8082481 C78.4987024,46.9086143 78.7210292,46.9025531 78.8975949,46.7924032 C79.0741607,46.6822533 79.1773601,46.4852361 79.1673748,46.2773689 C79.1573894,46.0695017 79.0357804,45.8832837 78.8494694,45.7905654 L74.2694003,43.2703408 C74.1667239,43.2110873 74.0482323,43.1850452 73.9301728,43.1957853 L73.9294272,43.1971521 Z" id="Path" fill="#000000" fill-rule="nonzero"></path>
                        <path d="M74.8019752,41.4039679 C74.5683693,41.4569525 74.3921487,41.6493107 74.3597838,41.8866535 C74.3274189,42.1239962 74.4457018,42.3565139 74.6565919,42.4701117 L77.467583,44.1907285 C77.5987568,44.2728423 77.7575092,44.2985675 77.9079017,44.2620803 C78.0582942,44.2255932 78.1876083,44.1299794 78.2665696,43.9968842 C78.3486834,43.8657105 78.3744085,43.706958 78.3379214,43.5565655 C78.3014342,43.406173 78.2058205,43.2768589 78.0727252,43.1978977 L75.2373793,41.4772808 C75.1077795,41.3951985 74.9507361,41.3683534 74.8012296,41.4027253 L74.8019752,41.4039679 Z" id="Path" fill="#000000" fill-rule="nonzero"></path>
                    </g>
                </g>
            </g>
        </g>
    </g>
</svg>