<?xml version="1.0" encoding="UTF-8"?>
<svg width="106px" height="109px" viewBox="0 0 106 109" version="1.1" xmlns="http://www.w3.org/2000/svg" xmlns:xlink="http://www.w3.org/1999/xlink">
    <!-- Generator: Sketch 63.1 (92452) - https://sketch.com -->
    <title>Group 5</title>
    <desc>Created with Sketch.</desc>
    <g id="Bevapp-Dashboard" stroke="none" stroke-width="1" fill="none" fill-rule="evenodd">
        <g id="Desktop-HD" transform="translate(-1192.000000, -311.000000)">
            <g id="Group-2" transform="translate(1171.000000, 306.000000)">
                <g id="Add-Customer-Button">
                    <g id="Group-5" transform="translate(17.599999, 0.000000)">
                        <path d="M96.3227791,11.0394947 C95.3330321,11.0931067 94.5727569,11.936598 94.6218687,12.9265785 L94.7036432,15.505066 C94.6707308,16.1815228 95.0201997,16.8192281 95.608087,17.1554804 C96.1959742,17.4917328 96.9228227,17.469646 97.4892086,17.0983187 C98.0555946,16.7269914 98.3656985,16.0692436 98.2917737,15.3960333 L98.2099992,12.7912416 C98.1981314,12.3063688 97.9911454,11.8467906 97.6359073,11.5165657 C97.2806693,11.1863408 96.8072273,11.0134016 96.3227791,11.0369052 L96.3227791,11.0394947 Z" id="Path-Copy" fill="#000000" fill-rule="nonzero"></path>
                        <path d="M11.2238316,50.8058919 C10.2340846,50.859504 9.47380937,51.7029953 9.52292117,52.6929757 L9.60469571,55.2714633 C9.5717833,55.9479201 9.92125222,56.5856253 10.5091395,56.9218777 C11.0970267,57.25813 11.8238752,57.2360432 12.3902611,56.8647159 C12.9566471,56.4933886 13.266751,55.8356409 13.1928262,55.1624305 L13.1110517,52.5576389 C13.0991839,52.072766 12.8921979,51.6131879 12.5369598,51.282963 C12.1817218,50.9527381 11.7082798,50.7797988 11.2238316,50.8033024 L11.2238316,50.8058919 Z" id="Path-Copy-7" fill="#000000" fill-rule="nonzero"></path>
                        <path d="M100.203526,16.7807488 C99.2088333,16.7484346 98.3749192,17.5258002 98.3374216,18.5203112 C98.299924,19.5148222 99.0729332,20.3527761 100.067235,20.395456 L102.220359,20.5821746 C102.863934,20.6439655 103.491257,20.3560821 103.864072,19.8278624 C104.236886,19.2996428 104.297994,18.6121275 104.024187,18.0264346 C103.750379,17.4407418 103.183664,17.0467297 102.53928,16.9940441 L100.386292,16.8073255 C100.324572,16.7949821 100.262247,16.7858835 100.199574,16.7800674 L100.203526,16.7807488 Z" id="Path-Copy-2" fill="#000000" fill-rule="nonzero"></path>
                        <path d="M15.1045787,56.5471461 C14.1098858,56.5148318 13.2759717,57.2921975 13.2384741,58.2867084 C13.2009765,59.2812194 13.9739857,60.1191734 14.9682878,60.1618533 L17.1214114,60.3485718 C17.7649863,60.4103628 18.3923097,60.1224794 18.7651243,59.5942597 C19.1379389,59.06604 19.1990468,58.3785247 18.9252391,57.7928319 C18.6514313,57.207139 18.0847163,56.813127 17.4403321,56.7604413 L15.2873448,56.5737228 C15.2256245,56.5613793 15.1632994,56.5522808 15.1006262,56.5464646 L15.1045787,56.5471461 Z" id="Path-Copy-8" fill="#000000" fill-rule="nonzero"></path>
                        <path d="M96.6684128,20.8208199 C96.1884471,20.8259961 95.7304163,21.022604 95.3960494,21.3669768 C95.0616825,21.7113496 94.8786617,22.1749769 94.8876359,22.6548866 L94.8876359,24.5951238 C94.8305084,25.2722129 95.1594287,25.9237928 95.7381256,26.2799151 C96.3168224,26.6360374 97.0467162,26.6360374 97.6254131,26.2799151 C98.20411,25.9237928 98.5330302,25.2722129 98.4759027,24.5951238 L98.4759027,22.6548866 C98.4849391,22.1703612 98.2982776,21.7026495 97.9581167,21.3574871 C97.6179559,21.0123246 97.1530185,20.8188565 96.6684128,20.8208199 L96.6684128,20.8208199 Z" id="Path-Copy-3" fill="#000000" fill-rule="nonzero"></path>
                        <path d="M11.5694653,60.5872172 C11.0894996,60.5923934 10.6314688,60.7890012 10.2971019,61.1333741 C9.96273505,61.4777469 9.77971419,61.9413741 9.78868842,62.4212838 L9.78868842,64.3615211 C9.73156092,65.0386101 10.0604812,65.6901901 10.639178,66.0463123 C11.2178749,66.4024346 11.9477687,66.4024346 12.5264656,66.0463123 C13.1051625,65.6901901 13.4340827,65.0386101 13.3769552,64.3615211 L13.3769552,62.4212838 C13.3859916,61.9367584 13.1993301,61.4690468 12.8591692,61.1238843 C12.5190084,60.7787219 12.054071,60.5852537 11.5694653,60.5872172 L11.5694653,60.5872172 Z" id="Path-Copy-9" fill="#000000" fill-rule="nonzero"></path>
                        <path d="M90.5285078,16.833766 C89.5940647,16.9354622 88.8950837,17.7388607 88.923631,18.6783878 C88.9521783,19.6179148 89.6986469,20.3773937 90.6375405,20.4221691 L92.8968348,20.5816294 C93.553421,20.6575631 94.1988283,20.3676405 94.5781583,19.8263641 C94.9574883,19.2850877 95.0097511,18.5794855 94.7143061,17.9882296 C94.418861,17.3969736 93.8232105,17.0151278 93.162602,16.9934989 L90.8768673,16.8340386 C90.7617422,16.8229197 90.6458136,16.8229197 90.5306885,16.8340386 L90.5285078,16.833766 Z" id="Path-Copy-4" fill="#000000" fill-rule="nonzero"></path>
                        <path d="M5.42956031,56.6001632 C4.49511717,56.7018595 3.79613617,57.5052579 3.82468346,58.444785 C3.85323075,59.3843121 4.59969939,60.1437909 5.53859302,60.1885663 L7.79788726,60.3480267 C8.45447346,60.4239604 9.09988081,60.1340377 9.4792108,59.5927613 C9.85854078,59.0514849 9.91080364,58.3458828 9.61535857,57.7546268 C9.31991349,57.1633709 8.724263,56.781525 8.06365451,56.7598962 L5.77791984,56.6004358 C5.66279473,56.5893169 5.54686608,56.5893169 5.43174096,56.6004358 L5.42956031,56.6001632 Z" id="Path-Copy-10" fill="#000000" fill-rule="nonzero"></path>
                        <path d="M84.9329487,7.06784159 C84.9329487,7.93737753 83.9884527,8.48840164 83.1186442,8.48840164 C82.2491083,8.48840164 81.3745296,7.71290642 81.3745296,6.84268903 C81.3745296,5.97315309 82.2904044,5.14068828 83.1607581,5.14068828 C84.030294,5.14068828 84.9329487,6.19830566 84.9329487,7.06784159 L84.9329487,7.06784159 Z" id="Path-Copy-5" fill="#000000" fill-rule="nonzero"></path>
                        <path d="M100.368302,34.8357494 C100.368302,35.7052853 99.4238059,36.2563094 98.5538611,36.2563094 C97.6843252,36.2563094 96.8098828,35.4808142 96.8098828,34.6105968 C96.8098828,33.7410609 97.7257576,32.9085961 98.5961113,32.9085961 C99.4656472,32.9085961 100.368302,33.9662135 100.368302,34.8357494 L100.368302,34.8357494 Z" id="Path-Copy-6" fill="#000000" fill-rule="nonzero"></path>
                        <path d="M80.4742338,76.0983376 L82.594767,75.9923109 L84.2911935,74.6139644 C84.2911935,74.6139644 84.3972202,74.5079377 84.5032469,74.5079377 C82.276687,71.9632979 78.883834,70.2668714 75.1729009,70.2668714 L67.5389815,70.2668714 C67.5389815,70.1608447 67.5389815,70.0548181 67.4329548,69.9487914 L66.1606349,64.9655385 C72.0981278,60.7244721 75.5970075,55.6351925 76.5512475,50.1218063 C79.8380739,49.3796196 81.4284738,47.0470332 81.4284738,43.0180201 C81.4284738,39.943247 80.6862871,37.8227139 79.2019139,36.4443673 C78.565754,35.914234 77.6115141,35.2780741 76.1271408,35.1720474 C76.2331675,32.9454876 76.1271408,30.2948211 75.9150875,27.0079947 C75.8090609,25.3115682 75.4909809,23.8271949 75.1729009,22.6609017 C75.7030342,20.2222886 75.9150875,17.4655954 75.4909809,15.2390356 C75.2789276,14.496849 74.4307143,13.9667157 73.6885277,14.2847957 C73.2644211,14.3908223 72.8403144,14.6028756 72.3101811,14.7089023 C72.4162078,13.9667157 72.4162078,13.3305557 72.3101811,12.6943958 C72.2041545,11.8461825 71.2499145,11.3160492 70.5077279,11.6341292 C67.0088482,12.9064491 61.8135419,14.178769 55.2398891,14.178769 C44.3191433,14.178769 35.412904,14.7089023 34.5646907,27.0079947 C34.3526374,30.1887945 34.2466107,32.8394609 34.3526374,35.1720474 C32.8682641,35.2780741 31.9140242,35.914234 31.2778643,36.4443673 C29.7934911,37.8227139 29.0513044,39.943247 29.0513044,43.0180201 C29.0513044,47.0470332 30.6417043,49.3796196 33.9285307,50.1218063 C34.8827707,55.6351925 38.3816504,60.7244721 44.3191433,64.9655385 L43.0468234,69.9487914 C43.0468234,70.0548181 43.0468234,70.1608447 42.9407967,70.2668714 L35.412904,70.2668714 C28.5211711,70.2668714 22.9017582,75.8862843 22.9017582,82.7780171 L22.9017582,90.5179632 C22.9017582,92.3204164 24.3861315,93.8047896 26.1885847,93.8047896 L67.8570615,93.8047896 C68.0691148,91.8963097 68.8113014,90.0938565 70.0836213,88.5034567 L71.4619679,86.9130568 L71.6740212,84.7925236 C72.0981278,80.1273506 75.7030342,76.5224442 80.4742338,76.0983376 Z M37.6394638,48.7434597 C37.5334371,47.5771665 36.5791972,46.6229265 35.412904,46.5168999 C33.9285307,46.4108732 32.9742908,46.1988199 32.9742908,43.0180201 C32.9742908,40.4733803 33.6104508,39.6251671 33.9285307,39.3070871 C34.0345574,39.2010604 34.3526374,38.9890071 34.9887973,38.9890071 C35.094824,40.1553004 35.2008506,41.2155669 35.412904,41.8517269 C35.7309839,43.1240468 39.123837,43.1240468 39.3358903,41.9577536 C39.5479436,41.0035136 38.6997304,34.5358875 41.7745035,28.7044212 C44.9553032,29.9767411 49.8325295,30.8249544 55.2398891,30.8249544 C60.6472487,30.8249544 65.524475,29.9767411 68.7052747,28.7044212 C71.7800478,34.4298608 71.0378612,41.0035136 71.1438879,41.9577536 C71.3559412,43.1240468 74.7487943,43.1240468 75.0668742,41.8517269 C75.1729009,41.2155669 75.3849542,40.1553004 75.4909809,38.9890071 C76.2331675,38.9890071 76.5512475,39.2010604 76.5512475,39.3070871 C76.8693274,39.6251671 77.5054874,40.579407 77.5054874,43.0180201 C77.5054874,46.1988199 76.4452208,46.3048466 75.0668742,46.5168999 C73.900581,46.6229265 72.9463411,47.5771665 72.8403144,48.7434597 C72.3101811,53.7267126 69.235408,58.1798323 63.6159951,62.1028187 C58.6327422,65.6016984 51.7410094,65.6016984 46.8637831,62.1028187 C41.2443702,58.0738056 38.1695971,53.620686 37.6394638,48.7434597 Z M62.3436752,74.5079377 L57.2543956,78.3248974 C55.9820757,79.2791374 54.3916758,79.2791374 53.1193559,78.3248974 L48.0300763,74.5079377 C46.8637831,73.6597245 46.4396764,72.2813779 46.7577564,70.9030313 L47.818023,66.980045 C50.1506095,68.0403116 52.5892226,68.5704448 55.2398891,68.5704448 C57.8905556,68.5704448 60.3291687,68.0403116 62.6617552,66.980045 L63.7220218,70.9030313 C64.0401018,72.2813779 63.5099685,73.7657511 62.3436752,74.5079377 Z" id="Shape" fill="#000000" fill-rule="nonzero"></path>
                        <circle id="Oval" fill="#000000" fill-rule="nonzero" cx="48.136103" cy="41.1095403" r="3.39285307"></circle>
                        <circle id="Oval" fill="#000000" fill-rule="nonzero" cx="62.3436752" cy="41.1095403" r="3.39285307"></circle>
                        <circle id="Oval-Copy" fill="#000000" fill-rule="nonzero" cx="62.3436752" cy="41.1095403" r="3.39285307"></circle>
                        <path d="M46.8637831,50.6519396 C47.7119963,54.4688993 51.1048494,57.331619 55.2398891,57.331619 C59.3749288,57.331619 62.7677819,54.4688993 63.6159951,50.6519396 C63.8280484,49.9097529 63.1918885,49.1675663 62.4497019,49.1675663 L48.0300763,49.1675663 C47.2878897,49.1675663 46.7577564,49.8037263 46.8637831,50.6519396 Z" id="Path" fill="#000000" fill-rule="nonzero"></path>
                        <path d="M82.946624,78.7793151 L95.3826578,77.8811571 C96.9521893,77.767802 98.4858832,78.3868818 99.5369191,79.558036 L106.845569,87.7019604 C107.683646,88.6358177 108.147192,89.8463639 108.147192,91.1011398 L108.147192,99.5516268 C108.147192,101.027603 107.506416,102.430878 106.391037,103.39754 L96.9575831,111.5732 C95.691205,112.670727 93.9656932,113.074492 92.3438234,112.652806 L81.8781335,109.931727 C80.8233254,109.657476 79.8844188,109.051851 79.1996083,108.20399 L72.1716408,99.5026973 C70.8495755,97.8658546 70.6710893,95.5842018 71.7225403,93.7616867 L78.9049676,81.3121461 C79.7486636,79.8497398 81.2626809,78.9009332 82.946624,78.7793151 Z" id="Path-4" fill="#B8E986"></path>
                        <path d="M106.768845,91.6842564 L105.390499,89.9878299 C104.754339,89.2456433 104.330232,88.2914033 104.330232,87.3371634 L104.118179,85.2166302 C103.906125,82.9900704 102.103672,81.1876172 99.8771123,80.9755639 L97.6505525,80.7635106 C96.6963126,80.6574839 95.7420727,80.3394039 94.9998861,79.703244 L93.3034595,78.3248974 C91.607033,76.8405242 89.0623932,76.8405242 87.25994,78.3248974 L85.5635134,79.703244 C84.8213268,80.3394039 83.8670869,80.7635106 82.912847,80.7635106 L80.6862871,80.9755639 C78.4597273,81.1876172 76.6572741,82.9900704 76.4452208,85.2166302 L76.3391941,87.3371634 C76.2331675,88.2914033 75.9150875,89.2456433 75.2789276,89.9878299 L73.900581,91.6842564 C72.4162078,93.3806829 72.4162078,95.9253227 73.900581,97.7277759 L75.2789276,99.4242025 C75.9150875,100.166389 76.3391941,101.120629 76.3391941,102.074869 L76.5512475,104.301429 C76.7633008,106.527989 78.565754,108.330442 80.7923138,108.542495 L83.0188736,108.754548 C83.9731136,108.860575 84.9273535,109.178655 85.6695401,109.814815 L87.3659666,111.193162 C89.0623932,112.677535 91.607033,112.677535 93.4094862,111.193162 L95.1059127,109.814815 C95.8480993,109.178655 96.8023392,108.754548 97.7565792,108.754548 L99.983139,108.542495 C102.209699,108.330442 104.012152,106.527989 104.224205,104.301429 L104.436259,102.074869 C104.542285,101.120629 104.860365,100.166389 105.496525,99.4242025 L106.874872,97.7277759 C108.253218,95.9253227 108.253218,93.3806829 106.768845,91.6842564 Z" id="Path" stroke="#000000" stroke-width="2.5446398" fill-rule="nonzero"></path>
                        <path d="M91.5010063,101.862816 L91.5010063,103.665269 C91.5010063,103.877322 91.3949797,103.983349 91.1829263,103.983349 L89.3804732,103.983349 C89.1684198,103.983349 89.0623932,103.877322 89.0623932,103.665269 L89.0623932,101.862816 C87.25994,101.756789 85.7755668,100.378442 85.6695401,98.5759892 C85.6695401,98.3639359 85.7755668,98.2579092 85.9876201,98.2579092 L87.7900733,98.2579092 C87.8960999,98.2579092 88.1081532,98.3639359 88.1081532,98.4699626 C88.2141799,99.0000958 88.7443132,99.4242025 89.2744465,99.4242025 L90.8648464,99.4242025 C91.8190863,99.4242025 92.6672996,98.7880425 92.6672996,97.8338026 C92.7733262,96.773536 91.925113,95.9253227 90.970873,95.9253227 L89.8045798,95.9253227 C87.57802,95.9253227 85.6695401,94.3349229 85.4574868,92.108363 C85.2454335,89.7757766 86.94186,87.76127 89.0623932,87.5492167 L89.0623932,85.7467635 C89.0623932,85.5347102 89.1684198,85.4286836 89.3804732,85.4286836 L91.1829263,85.4286836 C91.3949797,85.4286836 91.5010063,85.5347102 91.5010063,85.7467635 L91.5010063,87.5492167 C93.3034595,87.6552434 94.7878327,89.0335899 94.8938594,90.8360431 C94.8938594,91.0480965 94.7878327,91.1541231 94.5757794,91.1541231 L92.7733262,91.1541231 C92.6672996,91.1541231 92.4552462,91.0480965 92.4552462,90.9420698 C92.3492196,90.4119365 91.8190863,89.9878299 91.288953,89.9878299 L89.6985531,89.9878299 C88.7443132,89.9878299 87.8960999,90.6239898 87.8960999,91.5782297 C87.7900733,92.6384963 88.6382865,93.4867096 89.5925265,93.4867096 L90.970873,93.4867096 C93.4094862,93.4867096 95.4239927,95.6072428 95.2119394,98.1518826 C94.9998861,100.060362 93.4094862,101.544736 91.5010063,101.862816 Z" id="Path" fill="#000000" fill-rule="nonzero"></path>
                    </g>
                </g>
            </g>
        </g>
    </g>
</svg>